<?xml version="1.0" encoding="UTF-8"?>
<svg version="1.1" xmlns="http://www.w3.org/2000/svg" width="200" height="200">
<path d="M0 0 C66 0 132 0 200 0 C200 66 200 132 200 200 C134 200 68 200 0 200 C0 134 0 68 0 0 Z " fill="#FEFBF4" transform="translate(0,0)"/>
<path d="M0 0 C0.99 0.66 1.98 1.32 3 2 C5.67145537 1.19838209 5.67145537 1.19838209 8 0 C6.41987986 3.49883745 5.39126684 4.30436658 2 6 C2 6.66 2 7.32 2 8 C20.81 8.33 39.62 8.66 59 9 C59 14.61 59 20.22 59 26 C58.34 26 57.68 26 57 26 C56.74605469 25.37351562 56.49210937 24.74703125 56.23046875 24.1015625 C55.88628906 23.28429687 55.54210937 22.46703125 55.1875 21.625 C54.85105469 20.81289062 54.51460937 20.00078125 54.16796875 19.1640625 C53.05560918 16.69852542 53.05560918 16.69852542 50 15 C46.89791016 14.6303565 46.89791016 14.6303565 43.36328125 14.5859375 C41.60818237 14.53252197 41.60818237 14.53252197 39.81762695 14.47802734 C37.58758911 14.42702881 37.58758911 14.42702881 35.3125 14.375 C28.2278125 14.189375 28.2278125 14.189375 21 14 C21 23.9 21 33.8 21 44 C26.56875 43.87625 26.56875 43.87625 32.25 43.75 C33.4143457 43.73420898 34.57869141 43.71841797 35.77832031 43.70214844 C37.16422363 43.65622559 37.16422363 43.65622559 38.578125 43.609375 C39.52075195 43.58842773 40.46337891 43.56748047 41.43457031 43.54589844 C44.73136275 42.84437313 45.91199766 41.59915844 48 39 C49.26784124 35.86649283 49.26784124 35.86649283 50 33 C50.66 33 51.32 33 52 33 C52 41.91 52 50.82 52 60 C51.34 60 50.68 60 50 60 C49.81824219 59.44570312 49.63648438 58.89140625 49.44921875 58.3203125 C49.19785156 57.59585938 48.94648437 56.87140625 48.6875 56.125 C48.44386719 55.40570313 48.20023438 54.68640625 47.94921875 53.9453125 C47.03664453 51.66005095 47.03664453 51.66005095 44 50 C41.48497823 49.63303819 41.48497823 49.63303819 38.67578125 49.5859375 C37.74934814 49.55032715 36.82291504 49.5147168 35.8684082 49.47802734 C34.10823364 49.42702881 34.10823364 49.42702881 32.3125 49.375 C26.7128125 49.189375 26.7128125 49.189375 21 49 C21.33 59.56 21.66 70.12 22 81 C25.93040538 82.96520269 30.80292321 82.27248077 35.125 82.3125 C36.1459375 82.34150391 37.166875 82.37050781 38.21875 82.40039062 C44.96872063 82.45678498 49.2573661 81.60908589 55 78 C56.83300909 75.89424357 56.83300909 75.89424357 58 74 C58.66 74 59.32 74 60 74 C60.268125 72.865625 60.53625 71.73125 60.8125 70.5625 C61.204375 69.386875 61.59625 68.21125 62 67 C62.99 66.67 63.98 66.34 65 66 C64.36591429 70.69079318 63.11470488 74.86736767 61.5 79.3125 C61.0565625 80.54613281 60.613125 81.77976562 60.15625 83.05078125 C59 86 59 86 58 87 C56.15881971 87.09381302 54.31402359 87.11743954 52.47045898 87.11352539 C51.28931015 87.11344986 50.10816132 87.11337433 48.89122009 87.11329651 C47.6058284 87.10813522 46.32043671 87.10297394 44.99609375 87.09765625 C43.0338662 87.09553383 43.0338662 87.09553383 41.03199768 87.09336853 C37.54837141 87.0895441 34.06478661 87.07971446 30.58117676 87.06866455 C27.02873292 87.05844882 23.47628241 87.05387056 19.92382812 87.04882812 C12.94920168 87.03809212 5.97460283 87.0210166 -1 87 C-1 86.34 -1 85.68 -1 85 C-0.36191406 84.82984375 0.27617188 84.6596875 0.93359375 84.484375 C1.75988281 84.24203125 2.58617188 83.9996875 3.4375 83.75 C4.26121094 83.51796875 5.08492187 83.2859375 5.93359375 83.046875 C8.13452882 82.22676224 8.13452882 82.22676224 8.62106323 80.30995178 C9.08105415 77.50590391 9.12727228 74.83673242 9.12939453 71.99389648 C9.13254669 70.78261581 9.13569885 69.57133514 9.13894653 68.323349 C9.1369223 67.01910477 9.13489807 65.71486053 9.1328125 64.37109375 C9.13348639 63.01636233 9.13445712 61.66163103 9.13571167 60.30690002 C9.13718414 57.47159674 9.13504822 54.636325 9.13037109 51.80102539 C9.12466861 48.16711897 9.12795893 44.53328632 9.13394356 40.89938259 C9.13755667 38.10357609 9.13640722 35.30778709 9.13381577 32.51198006 C9.13282467 30.52055437 9.13586057 28.52912801 9.13894653 26.53770447 C9.13579437 25.32957596 9.13264221 24.12144745 9.12939453 22.87670898 C9.12859894 21.81177719 9.12780334 20.7468454 9.12698364 19.64964294 C9.11457909 16.89298411 9.11457909 16.89298411 8 14 C5.89415562 13.19436362 5.89415562 13.19436362 3.4375 12.8125 C1.973125 12.544375 0.50875 12.27625 -1 12 C-1.66 14.97 -2.32 17.94 -3 21 C-4.17156754 16.31372982 -3.84947478 13.71072376 -3 9 C-2.34 8.67 -1.68 8.34 -1 8 C-0.53476937 6.10466658 -0.53476937 6.10466658 -0.375 3.9375 C-0.25125 2.638125 -0.1275 1.33875 0 0 Z " fill="#5E5D5D" transform="translate(68,69)"/>
<path d="M0 0 C0.99 0 1.98 0 3 0 C4.5734726 3.64493255 6.13984244 7.29282581 7.69970703 10.94360352 C8.23129273 12.18499721 8.76480845 13.4255663 9.30029297 14.6652832 C10.06985843 16.44784809 10.8319069 18.23365229 11.59375 20.01953125 C12.05458984 21.09307861 12.51542969 22.16662598 12.99023438 23.27270508 C14 26 14 26 14 29 C10.37 29 6.74 29 3 29 C1.35 26.03 -0.3 23.06 -2 20 C-3.98 24.455 -3.98 24.455 -6 29 C-7.65 29 -9.3 29 -11 29 C-10.35952645 25.16022316 -9.22822779 21.84403286 -7.71484375 18.26171875 C-7.04291992 16.66166992 -7.04291992 16.66166992 -6.35742188 15.02929688 C-5.88884766 13.92650391 -5.42027344 12.82371094 -4.9375 11.6875 C-4.46505859 10.56537109 -3.99261719 9.44324219 -3.50585938 8.28710938 C-2.34138677 5.52295723 -1.17263728 2.760696 0 0 Z " fill="#797979" transform="translate(98,45)"/>
<path d="M0 0 C1.60875 0.2475 3.2175 0.495 4.875 0.75 C6.23238281 0.95882812 6.23238281 0.95882812 7.6171875 1.171875 C10 2 10 2 11.13473511 3.67340088 C12.21887503 6.58853012 12.23990723 8.94244914 12.22705078 12.05371094 C12.22689972 13.27467468 12.22674866 14.49563843 12.22659302 15.75360107 C12.21627045 17.06725647 12.20594788 18.38091187 12.1953125 19.734375 C12.19158042 21.09629102 12.18873437 22.45820973 12.18673706 23.82012939 C12.17911594 27.39747586 12.15948069 30.97465885 12.1373291 34.55194092 C12.11683778 38.2051777 12.10772833 41.85844101 12.09765625 45.51171875 C12.07623322 52.67455353 12.04211582 59.83725383 12 67 C11.67 67 11.34 67 11 67 C10.67 49.84 10.34 32.68 10 15 C2.38713713 18.79118407 2.38713713 18.79118407 1 22 C1.66 22 2.32 22 3 22 C1.63016497 25.16115776 1.0109362 25.9927092 -2 28 C-2.73606499 31.56769552 -2.73606499 31.56769552 -3 35 C-5.69870051 32.30129949 -5.98891174 30.57035215 -6.0625 26.78515625 C-6.02087704 24.30598885 -5.97921047 21.82682218 -5.9375 19.34765625 C-5.98809429 16.6376996 -6.18053556 14.55442431 -7 12 C-6.01 12 -5.02 12 -4 12 C-3.67 11.34 -3.34 10.68 -3 10 C-2.34 10 -1.68 10 -1 10 C-0.67 6.7 -0.34 3.4 0 0 Z " fill="#E9E6E0" transform="translate(66,80)"/>
<path d="M0 0 C3.05296726 -0.29355454 5.95503931 -0.4192717 9 0 C11.97534329 2.5399272 12.90364743 3.91603362 13.25 7.8125 C13.1675 8.534375 13.085 9.25625 13 10 C10.69 10 8.38 10 6 10 C6 11.65 6 13.3 6 15 C5.67 14.01 5.34 13.02 5 12 C-1.27 12 -7.54 12 -14 12 C-14 10.68 -14 9.36 -14 8 C-8.72 8 -3.44 8 2 8 C1.34 5.36 0.68 2.72 0 0 Z " fill="#7A7A79" transform="translate(107,87)"/>
<path d="M0 0 C2.7082797 4.33952153 1.94150007 8.29366849 1.58203125 13.22265625 C1.70086005 16.20678244 1.70086005 16.20678244 4.3671875 17.796875 C5.23601562 18.19390625 6.10484375 18.5909375 7 19 C7.763125 19.391875 8.52625 19.78375 9.3125 20.1875 C9.869375 20.455625 10.42625 20.72375 11 21 C7.78548731 22.60725635 4.56387464 22.05748185 1 22 C0.67 22.99 0.34 23.98 0 25 C0 24.01 0 23.02 0 22 C-2.31 22 -4.62 22 -7 22 C-7.34179688 18.97265625 -7.34179688 18.97265625 -7.68359375 15.9453125 C-7.91292961 13.92595684 -7.91292961 13.92595684 -9 12 C-8.34 12 -7.68 12 -7 12 C-7.350625 11.401875 -7.70125 10.80375 -8.0625 10.1875 C-9 8 -9 8 -8 5 C-7.67 5.33 -7.34 5.66 -7 6 C-6.34 4.68 -5.68 3.36 -5 2 C-4.34 3.65 -3.68 5.3 -3 7 C-2.34 7 -1.68 7 -1 7 C-0.67 4.69 -0.34 2.38 0 0 Z " fill="#555554" transform="translate(131,103)"/>
<path d="M0 0 C2 3 2 3 1.625 5.1875 C1.41875 5.785625 1.2125 6.38375 1 7 C1.928125 6.01 1.928125 6.01 2.875 5 C5 3 5 3 7 3 C5.63501982 7.91392865 3.23958284 9.38408718 -1 12 C-1.33 12.66 -1.66 13.32 -2 14 C-1.34 14 -0.68 14 0 14 C-1.36983503 17.16115776 -1.9890638 17.9927092 -5 20 C-5.73606499 23.56769552 -5.73606499 23.56769552 -6 27 C-8.69870051 24.30129949 -8.98891174 22.57035215 -9.0625 18.78515625 C-9.02087704 16.30598885 -8.97921047 13.82682218 -8.9375 11.34765625 C-8.98809429 8.6376996 -9.18053556 6.55442431 -10 4 C-9.01 4 -8.02 4 -7 4 C-6.34 3.34 -5.68 2.68 -5 2 C-4.34 3.32 -3.68 4.64 -3 6 C-2.01 4.02 -1.02 2.04 0 0 Z " fill="#DFDCD6" transform="translate(69,88)"/>
<path d="M0 0 C1.65 0 3.3 0 5 0 C4.42655063 2.86724686 4.1385485 3.8614515 2 6 C3.32 6.99 4.64 7.98 6 9 C3.36 9.66 0.72 10.32 -2 11 C-1.34 11.66 -0.68 12.32 0 13 C-0.66 13.66 -1.32 14.32 -2 15 C-2.99 15 -3.98 15 -5 15 C-5 14.34 -5 13.68 -5 13 C-7.72426311 15.35277269 -8.8141763 17.62496331 -10 21 C-10.66 21 -11.32 21 -12 21 C-12.50610724 14.92671312 -11.04157942 11.22771463 -8 6 C-7.34 6 -6.68 6 -6 6 C-6 5.01 -6 4.02 -6 3 C-1.545 2.505 -1.545 2.505 3 2 C2.01 1.34 1.02 0.68 0 0 Z " fill="#D8D5CF" transform="translate(138,122)"/>
<path d="M0 0 C0.33 0 0.66 0 1 0 C1 6.27 1 12.54 1 19 C-3.95 19 -8.9 19 -14 19 C-13.505 17.515 -13.505 17.515 -13 16 C-12.06929687 15.75507812 -11.13859375 15.51015625 -10.1796875 15.2578125 C-5.9033853 13.56620401 -4.86666432 10.87291129 -3.125 6.875 C-2.81820312 6.21628906 -2.51140625 5.55757813 -2.1953125 4.87890625 C-1.44501145 3.26106962 -0.71993775 1.6315749 0 0 Z " fill="#767675" transform="translate(72,106)"/>
<path d="M0 0 C0.33 0 0.66 0 1 0 C1.1875 2.8125 1.1875 2.8125 1 6 C-0.5 7.625 -0.5 7.625 -2 9 C-2 10.32 -2 11.64 -2 13 C-0.68 10.69 0.64 8.38 2 6 C2.33 7.32 2.66 8.64 3 10 C6.465 9.505 6.465 9.505 10 9 C7.04923989 12.38790976 5.30367578 13.13926484 1 14 C-0.37195574 15.29355827 -1.71182656 16.62298702 -3 18 C-3.66 18 -4.32 18 -5 18 C-4.979375 16.80375 -4.95875 15.6075 -4.9375 14.375 C-4.93117429 10.81995131 -5.30111125 7.49444376 -6 4 C-5.01 4 -4.02 4 -3 4 C-1.36323743 2.0399719 -1.36323743 2.0399719 0 0 Z " fill="#B6B4AF" transform="translate(146,98)"/>
<path d="M0 0 C1.32 0.33 2.64 0.66 4 1 C5.484375 3.72265625 5.484375 3.72265625 6.75 7.0625 C7.17796875 8.16722656 7.6059375 9.27195313 8.046875 10.41015625 C8.36140625 11.26480469 8.6759375 12.11945313 9 13 C7.68 13 6.36 13 5 13 C5 12.01 5 11.02 5 10 C2.69 10 0.38 10 -2 10 C-2 10.99 -2 11.98 -2 13 C-3.32 12.67 -4.64 12.34 -6 12 C-4.02 8.04 -2.04 4.08 0 0 Z " fill="#5F5F5E" transform="translate(81,165)"/>
<path d="M0 0 C2.97 0 5.94 0 9 0 C9 0.66 9 1.32 9 2 C7.02 2 5.04 2 3 2 C3 2.99 3 3.98 3 5 C4.98 5 6.96 5 9 5 C9 5.99 9 6.98 9 8 C7.02 8 5.04 8 3 8 C3 8.99 3 9.98 3 11 C5.31 11 7.62 11 10 11 C10 11.66 10 12.32 10 13 C6.7 13 3.4 13 0 13 C0 8.71 0 4.42 0 0 Z " fill="#636262" transform="translate(114,165)"/>
<path d="M0 0 C4.39383898 3.58444759 5.72125999 6.37846063 6.8359375 11.9140625 C7 14 7 14 6 17 C5.34 16.34 4.68 15.68 4 15 C1.31160615 14.73008094 -1.29141936 14.91262643 -4 15 C-4 14.01 -4 13.02 -4 12 C-5.43990623 9.82967524 -5.43990623 9.82967524 -7 8 C-5.35 8 -3.7 8 -2 8 C-1.34 9.32 -0.68 10.64 0 12 C0.99 12 1.98 12 3 12 C2.01 10.35 1.02 8.7 0 7 C0.66 7 1.32 7 2 7 C1.34 4.69 0.68 2.38 0 0 Z " fill="#A4A29D" transform="translate(52,75)"/>
<path d="M0 0 C2 3 2 3 1.625 5.1875 C1.41875 5.785625 1.2125 6.38375 1 7 C1.928125 6.01 1.928125 6.01 2.875 5 C5 3 5 3 7 3 C5.63501982 7.91392865 3.23958284 9.38408718 -1 12 C-1.33 12.66 -1.66 13.32 -2 14 C-1.34 14 -0.68 14 0 14 C-1.39159663 17.47899158 -2.63251488 18.48052501 -6 20 C-5.84402344 19.41992188 -5.68804687 18.83984375 -5.52734375 18.2421875 C-4.33943802 13.47483073 -3.75082125 9.87179712 -5 5 C-4.01 5 -3.02 5 -2 5 C-1.34 3.35 -0.68 1.7 0 0 Z " fill="#AFADA8" transform="translate(69,88)"/>
<path d="M0 0 C2.33294775 -0.04241723 4.66702567 -0.04092937 7 0 C8 1 8 1 8.3125 3.25 C7.90645326 6.82321129 6.38632549 8.3899565 4 11 C5.65 11 7.3 11 9 11 C9 11.66 9 12.32 9 13 C5.7 13 2.4 13 -1 13 C1 9 1 9 2.5625 7.5 C4.26316011 5.72539815 4.58794182 4.38993744 5 2 C3.02 2.33 1.04 2.66 -1 3 C-0.67 2.01 -0.34 1.02 0 0 Z " fill="#5F5F5F" transform="translate(97,165)"/>
<path d="M0 0 C0.33 1.32 0.66 2.64 1 4 C2.32 4 3.64 4 5 4 C6.76462683 7.08809695 7 8.23312136 7 12 C4.69 12 2.38 12 0 12 C-0.22786458 9.98177083 -0.45572917 7.96354167 -0.68359375 5.9453125 C-0.91292961 3.92595684 -0.91292961 3.92595684 -2 2 C-1.34 2 -0.68 2 0 2 C0 1.34 0 0.68 0 0 Z " fill="#888786" transform="translate(124,113)"/>
<path d="M0 0 C1.44977894 2.34112451 2.04314411 3.5796929 1.7578125 6.359375 C1.54898438 7.14828125 1.34015625 7.9371875 1.125 8.75 C0.92132813 9.54921875 0.71765625 10.3484375 0.5078125 11.171875 C0.25644531 12.07679687 0.25644531 12.07679687 0 13 C-3.875 11.25 -3.875 11.25 -5 9 C-5.99 9.33 -6.98 9.66 -8 10 C-8.33 8.35 -8.66 6.7 -9 5 C-8.01 5.495 -8.01 5.495 -7 6 C-6.34 4.68 -5.68 3.36 -5 2 C-4.34 3.65 -3.68 5.3 -3 7 C-2.34 7 -1.68 7 -1 7 C-0.67 4.69 -0.34 2.38 0 0 Z " fill="#888785" transform="translate(131,103)"/>
<path d="M0 0 C1.65 0 3.3 0 5 0 C4.42655063 2.86724686 4.1385485 3.8614515 2 6 C3.32 6.99 4.64 7.98 6 9 C3.03 9.66 0.06 10.32 -3 11 C-3 8.69 -3 6.38 -3 4 C-2.01 4.33 -1.02 4.66 0 5 C0.33 4.34 0.66 3.68 1 3 C-0.32 2.67 -1.64 2.34 -3 2 C-1.02 2 0.96 2 3 2 C2.01 1.34 1.02 0.68 0 0 Z " fill="#A3A29E" transform="translate(138,122)"/>
<path d="M0 0 C1.875 0.125 1.875 0.125 4 1 C5.25 4.0625 5.25 4.0625 6 7 C4.02 7.33 2.04 7.66 0 8 C-1.125 5.6875 -1.125 5.6875 -2 3 C-1.34 2.01 -0.68 1.02 0 0 Z " fill="#848482" transform="translate(81,165)"/>
<path d="M0 0 C0.33 1.32 0.66 2.64 1 4 C4.465 3.505 4.465 3.505 8 3 C4.777893 6.8665284 1.85077588 7.88059018 -3 9 C-2.5020163 5.26512223 -2.12508244 3.18762365 0 0 Z " fill="#989792" transform="translate(148,104)"/>
<path d="M0 0 C0.33 0 0.66 0 1 0 C1 6.27 1 12.54 1 19 C-3.95 19 -8.9 19 -14 19 C-13.505 17.515 -13.505 17.515 -13 16 C-8.71 16.66 -4.42 17.32 0 18 C-0.08378906 16.95199219 -0.16757813 15.90398437 -0.25390625 14.82421875 C-0.35708794 13.44533619 -0.45993506 12.06642857 -0.5625 10.6875 C-0.61857422 9.99720703 -0.67464844 9.30691406 -0.73242188 8.59570312 C-0.96581505 5.37487726 -1.03224218 3.09672655 0 0 Z " fill="#8C8C8A" transform="translate(72,106)"/>
<path d="M0 0 C0.66 0.66 1.32 1.32 2 2 C1.9765625 4.8203125 1.9765625 4.8203125 1.625 8.125 C1.51414062 9.22070312 1.40328125 10.31640625 1.2890625 11.4453125 C1.14597656 12.70988281 1.14597656 12.70988281 1 14 C0.67 13.01 0.34 12.02 0 11 C-0.66 10.67 -1.32 10.34 -2 10 C-4 9 -4 9 -5 6 C-4.01 6.33 -3.02 6.66 -2 7 C-1.34 4.69 -0.68 2.38 0 0 Z " fill="#A5A49F" transform="translate(64,64)"/>
<path d="M0 0 C1.485 0.99 1.485 0.99 3 2 C5.67145537 1.19838209 5.67145537 1.19838209 8 0 C6.41987986 3.49883745 5.39126684 4.30436658 2 6 C2 6.66 2 7.32 2 8 C1.01 8 0.02 8 -1 8 C-0.67 5.36 -0.34 2.72 0 0 Z " fill="#A6A49F" transform="translate(68,69)"/>
<path d="M0 0 C3.53586014 3.17320782 5.58578031 5.16743695 6 10 C5.34 10 4.68 10 4 10 C3.67 10.66 3.34 11.32 3 12 C2.01 10.35 1.02 8.7 0 7 C0.66 7 1.32 7 2 7 C1.34 4.69 0.68 2.38 0 0 Z " fill="#ABA9A4" transform="translate(52,75)"/>
<path d="M0 0 C0 3 0 3 -2 6 C-0.35 6 1.3 6 3 6 C3 6.66 3 7.32 3 8 C-0.3 8 -3.6 8 -7 8 C-1.125 1.125 -1.125 1.125 0 0 Z " fill="#575756" transform="translate(103,170)"/>
<path d="M0 0 C4.95 1.98 4.95 1.98 10 4 C8 6 8 6 6.0546875 6.1953125 C4.03645833 6.13020833 2.01822917 6.06510417 0 6 C0 4.02 0 2.04 0 0 Z " fill="#767675" transform="translate(132,119)"/>
<path d="M0 0 C0.99 0.33 1.98 0.66 3 1 C2.01 2.485 2.01 2.485 1 4 C1.66 4 2.32 4 3 4 C1.48601545 7.78496138 0.9855604 8.0072198 -3 10 C-2.01 6.7 -1.02 3.4 0 0 Z " fill="#9A9894" transform="translate(66,98)"/>
<path d="M0 0 C1.44977894 2.34112451 2.04314411 3.5796929 1.7578125 6.359375 C1.54898438 7.14828125 1.34015625 7.9371875 1.125 8.75 C0.92132813 9.54921875 0.71765625 10.3484375 0.5078125 11.171875 C0.34023437 11.77515625 0.17265625 12.3784375 0 13 C-0.99 11.68 -1.98 10.36 -3 9 C-2.34 8.34 -1.68 7.68 -1 7 C-0.59952556 4.67724823 -0.2602896 2.34260643 0 0 Z " fill="#94928E" transform="translate(131,103)"/>
<path d="M0 0 C2.31 0 4.62 0 7 0 C6.67 0.99 6.34 1.98 6 3 C5.34 2.67 4.68 2.34 4 2 C3.34 3.32 2.68 4.64 2 6 C0 3 0 3 0 0 Z " fill="#E8E5DF" transform="translate(132,125)"/>
<path d="M0 0 C1.65 0 3.3 0 5 0 C3.25 2.0625 3.25 2.0625 1 4 C-1.25 3.75 -1.25 3.75 -3 3 C-2.01 2.67 -1.02 2.34 0 2 C0 1.34 0 0.68 0 0 Z " fill="#C2C0BA" transform="translate(151,107)"/>
<path d="M0 0 C0.66 0 1.32 0 2 0 C1.67 1.98 1.34 3.96 1 6 C0.01 6 -0.98 6 -2 6 C-1.125 1.125 -1.125 1.125 0 0 Z " fill="#666664" transform="translate(131,135)"/>
</svg>
